<?xml version="1.0" encoding="UTF-8"?>
<svg version="1.1" xmlns="http://www.w3.org/2000/svg" width="32" height="32">
<path d="M0 0 C0.33 2.64 0.66 5.28 1 8 C1.54269531 7.4946875 2.08539062 6.989375 2.64453125 6.46875 C3.35996094 5.8190625 4.07539063 5.169375 4.8125 4.5 C5.87404297 3.52546875 5.87404297 3.52546875 6.95703125 2.53125 C9 1 9 1 12 1 C12 7.6 12 14.2 12 21 C9.69 21 7.38 21 5 21 C4.505 18.525 4.505 18.525 4 16 C1.03 18.64 -1.94 21.28 -5 24 C-5.66 23.67 -6.32 23.34 -7 23 C-7 20.69 -7 18.38 -7 16 C-7.62648438 16.5053125 -8.25296875 17.010625 -8.8984375 17.53125 C-9.71570312 18.1809375 -10.53296875 18.830625 -11.375 19.5 C-12.18710938 20.1496875 -12.99921875 20.799375 -13.8359375 21.46875 C-16 23 -16 23 -18 23 C-18 16.4 -18 9.8 -18 3 C-15.69 3 -13.38 3 -11 3 C-10.67 4.32 -10.34 5.64 -10 7 C-9.36191406 6.4946875 -8.72382813 5.989375 -8.06640625 5.46875 C-6.82697266 4.49421875 -6.82697266 4.49421875 -5.5625 3.5 C-4.73878906 2.8503125 -3.91507813 2.200625 -3.06640625 1.53125 C-1 0 -1 0 0 0 Z " fill="#0060FF" transform="translate(19,4)"/>
</svg>
