<?xml version="1.0" encoding="UTF-8"?>
<svg version="1.1" xmlns="http://www.w3.org/2000/svg" width="300" height="268">
<path d="M0 0 C1.34440309 -0.00734866 2.68879989 -0.0159372 4.03318787 -0.02566528 C7.66974874 -0.04780895 11.30608254 -0.0508155 14.94270158 -0.04891777 C17.98665759 -0.04879771 21.03056612 -0.05737641 24.07450885 -0.06569529 C31.26129361 -0.08490448 38.44796223 -0.08782262 45.63476562 -0.08105469 C53.0290536 -0.07441896 60.4228421 -0.09726468 67.81702882 -0.13436842 C74.18248312 -0.1651416 80.54777739 -0.17641714 86.91330451 -0.1725316 C90.70757749 -0.17047155 94.50146183 -0.17582676 98.29566383 -0.20042419 C101.86725085 -0.22281501 105.43803067 -0.22071301 109.00962257 -0.20049667 C110.93042472 -0.19550352 112.85124276 -0.21501706 114.77194214 -0.23550415 C124.12728435 -0.14547699 131.4177513 1.92975628 138.19604492 8.60742188 C142.49625743 13.98518183 145.58440907 20.16361966 148.84448242 26.20117188 C151.90199888 31.84648062 155.13378067 37.38365497 158.38354492 42.91992188 C165.23379162 54.61487238 172.01375567 66.34921753 178.77856445 78.09375 C180.7367082 81.49045873 182.69831419 84.88514646 184.66088867 88.27929688 C195.88068509 107.68700072 195.88068509 107.68700072 201.07104492 116.85742188 C201.43439941 117.49566895 201.79775391 118.13391602 202.17211914 118.79150391 C206.24178982 126.02086933 206.87200034 133.27653096 205.69604492 141.41992188 C204.03711317 146.46937108 201.40577727 150.87641295 198.69604492 155.41992188 C197.65250181 157.22091925 196.61099309 159.02309628 195.57104492 160.82617188 C193.1897689 164.93931583 190.78861475 169.040091 188.37573242 173.13476562 C184.36944556 179.95007027 180.489619 186.83321572 176.62060547 193.72705078 C171.86421323 202.1781601 166.96678379 210.54434143 162.01245117 218.88085938 C161.4478418 219.83863281 160.88323242 220.79640625 160.30151367 221.78320312 C159.79773193 222.63180908 159.2939502 223.48041504 158.77490234 224.35473633 C157.54170229 226.32703556 157.54170229 226.32703556 157.69604492 228.41992188 C157.22166992 228.87367188 156.74729492 229.32742187 156.25854492 229.79492188 C154.45065823 231.67512403 154.25963174 232.92403741 153.69604492 235.41992188 C153.03604492 236.07992187 152.37604492 236.73992187 151.69604492 237.41992188 C151.36604492 238.24492187 151.03604492 239.06992188 150.69604492 239.91992188 C149.69604492 242.41992188 149.69604492 242.41992188 147.69604492 244.41992188 C147.42920898 245.09539062 147.16237305 245.77085937 146.88745117 246.46679688 C145.16507682 250.73602642 142.88384539 254.65948539 140.63354492 258.66992188 C140.17399414 259.4975 139.71444336 260.32507813 139.2409668 261.17773438 C135.83310429 267.28286251 135.83310429 267.28286251 134.69604492 268.41992188 C131.84793644 268.51316273 129.02434883 268.54090426 126.17602539 268.52636719 C125.27884922 268.52566978 124.38167305 268.52497238 123.45730972 268.52425385 C120.45091875 268.52052271 117.44460358 268.50940948 114.43823242 268.49804688 C112.31533884 268.49326725 110.19244449 268.48881764 108.06954956 268.48468018 C102.42186764 268.47212563 96.77422814 268.45267087 91.12657166 268.43179321 C87.77119142 268.42018192 84.41581534 268.41111928 81.0604248 268.40307617 C68.97366464 268.37356967 56.8873237 268.32300459 44.80083084 268.23600006 C39.1822265 268.1959185 33.5638005 268.16393929 27.94506836 268.14892578 C22.35991347 268.13377701 16.7751794 268.09947681 11.19021225 268.05161285 C9.09879055 268.03690767 7.00730956 268.02888719 4.91583633 268.02803802 C2.02455997 268.02566827 -0.86552242 267.99862961 -3.7565918 267.96582031 C-4.59481979 267.97085068 -5.43304779 267.97588104 -6.29667664 267.98106384 C-13.61817948 267.85281837 -19.56910355 265.73860034 -25.17895508 260.98242188 C-27.1879482 258.55981252 -28.75369931 256.15132489 -30.30395508 253.41992188 C-31.29395508 252.42992187 -31.29395508 252.42992187 -32.30395508 251.41992188 C-32.30395508 250.42992187 -32.30395508 249.43992188 -32.30395508 248.41992188 C-32.96395508 248.08992187 -33.62395508 247.75992188 -34.30395508 247.41992188 C-35.54917719 245.43413601 -36.72423443 243.40418898 -37.86645508 241.35742188 C-38.21796631 240.73182373 -38.56947754 240.10622559 -38.93164062 239.46166992 C-40.06065746 237.4504608 -41.1824545 235.43533008 -42.30395508 233.41992188 C-43.73891989 230.85599655 -45.17737355 228.29403842 -46.61645508 225.73242188 C-46.98367676 225.07798096 -47.35089844 224.42354004 -47.72924805 223.74926758 C-50.77875438 218.32582786 -53.87552381 212.93044296 -56.99145508 207.54492188 C-57.4576123 206.73909668 -57.92376953 205.93327148 -58.40405273 205.10302734 C-61.32469649 200.0692671 -64.29739112 195.07269622 -67.37817383 190.13476562 C-68.30395508 188.41992188 -68.30395508 188.41992188 -68.30395508 186.41992188 C-68.96395508 186.08992187 -69.62395508 185.75992188 -70.30395508 185.41992188 C-71.2162945 183.93325732 -72.05795486 182.4030163 -72.86645508 180.85742188 C-75.41362393 176.07295872 -78.01651514 171.32826176 -80.67895508 166.60742188 C-81.05802002 165.93356445 -81.43708496 165.25970703 -81.82763672 164.56542969 C-83.74409859 161.16396283 -85.67353245 157.77060793 -87.62426758 154.38867188 C-87.99116699 153.7516333 -88.35806641 153.11459473 -88.73608398 152.45825195 C-89.74573835 150.70832288 -90.75910895 148.9605395 -91.77270508 147.21289062 C-95.29227611 140.7932649 -95.44861503 133.54597475 -94.30395508 126.41992188 C-92.30342922 120.69031912 -89.37198155 115.63805944 -86.30395508 110.41992188 C-85.26283997 108.60915527 -84.22252219 106.79793008 -83.18286133 104.98632812 C-80.83539867 100.92031486 -78.46421035 96.86920026 -76.07739258 92.82617188 C-72.2979856 86.42331962 -68.5761379 79.98836154 -64.86645508 73.54492188 C-64.24512695 72.46694336 -63.62379883 71.38896484 -62.98364258 70.27832031 C-61.08983298 66.99252153 -59.1967837 63.70628584 -57.30395508 60.41992188 C-56.04100852 58.22717076 -54.77798777 56.03446238 -53.51489258 53.84179688 C-52.89098633 52.75858154 -52.26708008 51.67536621 -51.62426758 50.55932617 C-50.37627595 48.3955689 -49.12629821 46.23295586 -47.87426758 44.0715332 C-44.72404126 38.63267739 -41.6023396 33.18084216 -38.53051758 27.69726562 C-37.9150708 26.6113916 -37.29962402 25.52551758 -36.66552734 24.40673828 C-35.50544028 22.35985919 -34.35659591 20.30654729 -33.22167969 18.24560547 C-25.06903495 3.95890038 -16.02061 -0.03757433 0 0 Z " fill="#4485F5" transform="translate(94.303955078125,-0.419921875)"/>
<path d="M0 0 C3.24900717 1.08300239 3.74706612 1.63159369 5.8125 4.1875 C9.44641839 8.47928292 13.34028425 12.46224932 17.3125 16.4375 C18.24703003 17.37855591 18.24703003 17.37855591 19.20043945 18.33862305 C19.79042725 18.92683838 20.38041504 19.51505371 20.98828125 20.12109375 C21.51977783 20.6514624 22.05127441 21.18183105 22.59887695 21.72827148 C23.99388405 23.10943585 23.99388405 23.10943585 26 24 C25 26 24 28 23 30 C22.45600715 34.539219 22.37710539 37.9544269 24.75 41.9375 C27.43418121 44.39799944 29.49422775 45.89494612 33.18359375 46.15234375 C37.49992018 45.74090882 39.53449925 45.37821936 43 42.5625 C45.78729619 38.99127675 46.11967222 37.33443334 46.0625 32.875 C46.05347656 31.96492188 46.04445313 31.05484375 46.03515625 30.1171875 C46.02355469 29.41851562 46.01195312 28.71984375 46 28 C46.69055481 28.69153671 47.38110962 29.38307343 48.09259033 30.0955658 C51.22623115 33.22911652 54.3723847 36.34998477 57.51855469 39.47094727 C63.94674793 45.85021239 70.36736967 52.23704241 76.78368759 58.62825108 C80.66126729 62.4901188 84.54162615 66.34910958 88.42822266 70.2019043 C92.19469867 73.93584182 95.95384902 77.67701046 99.70798492 81.4233532 C101.13913122 82.84895354 102.57291679 84.27190938 104.00936127 85.6921711 C106.01292809 87.6740325 108.00698155 89.66501155 109.99902344 91.65844727 C110.59537094 92.24400894 111.19171844 92.82957062 111.80613708 93.43287659 C116.45465698 98.1168272 116.45465698 98.1168272 117 102 C115.98706055 104.47924805 115.98706055 104.47924805 114.38671875 107.26171875 C113.51092163 108.80436401 113.51092163 108.80436401 112.61743164 110.37817383 C111.66211548 112.01629028 111.66211548 112.01629028 110.6875 113.6875 C110.04611084 114.80858154 109.40472168 115.92966309 108.74389648 117.0847168 C106.84307576 120.39803701 104.92502261 123.7006938 103 127 C102.49307617 127.87172852 101.98615234 128.74345703 101.46386719 129.64160156 C98.30826261 135.06047463 95.11556918 140.45682106 91.90087891 145.84082031 C90.88878989 147.53765297 89.88174335 149.23749028 88.875 150.9375 C88.31554687 151.87464844 87.75609375 152.81179687 87.1796875 153.77734375 C85.84372844 155.87504561 85.84372844 155.87504561 86 158 C85.525625 158.45375 85.05125 158.9075 84.5625 159.375 C82.75461331 161.25520216 82.56358681 162.50411554 82 165 C81.34 165.66 80.68 166.32 80 167 C79.67 167.825 79.34 168.65 79 169.5 C78 172 78 172 76 174 C75.73316406 174.67546875 75.46632812 175.3509375 75.19140625 176.046875 C73.4690319 180.31610455 71.18780047 184.23956351 68.9375 188.25 C68.47794922 189.07757813 68.01839844 189.90515625 67.54492188 190.7578125 C64.13705937 196.86294063 64.13705937 196.86294063 63 198 C61.55391503 198.11895421 60.10215702 198.17005229 58.65136719 198.19287109 C57.72660583 198.20893402 56.80184448 198.22499695 55.84906006 198.24154663 C51.60559686 198.28588461 47.36229301 198.32707835 43.11865234 198.35009766 C40.87993975 198.36664706 38.64127977 198.39392345 36.40283203 198.43212891 C33.17973334 198.48688682 29.95787619 198.50877238 26.734375 198.5234375 C25.73525085 198.54610687 24.73612671 198.56877625 23.70672607 198.59213257 C22.76935608 198.58928253 21.83198608 198.5864325 20.86621094 198.58349609 C19.6349649 198.59562637 19.6349649 198.59562637 18.37884521 198.60800171 C14.9557781 197.73311055 13.29218967 195.52855916 11 193 C9.74260686 191.73282917 8.47855275 190.4722508 7.20976257 189.2164917 C6.49610031 188.5042746 5.78243805 187.7920575 5.04714966 187.05825806 C3.89592117 185.90938614 3.89592117 185.90938614 2.72143555 184.73730469 C-5.61033744 176.42185216 -13.93959837 168.10388781 -22.2673769 159.78443527 C-27.30556436 154.75142132 -32.3446988 149.71936207 -37.38598633 144.68945312 C-42.26338763 139.82305447 -47.13819968 134.95407462 -52.01140404 130.08347321 C-53.87217773 128.22455337 -55.73383419 126.36651677 -57.59636879 124.50936127 C-60.18935462 121.92357599 -62.77925359 119.33473784 -65.3684082 116.74511719 C-66.53481842 115.58409988 -66.53481842 115.58409988 -67.72479248 114.39962769 C-68.77413719 113.34822098 -68.77413719 113.34822098 -69.84468079 112.27557373 C-70.76410697 111.35753023 -70.76410697 111.35753023 -71.70210743 110.4209404 C-73 109 -73 109 -73 108 C-71.91332031 107.94392578 -71.91332031 107.94392578 -70.8046875 107.88671875 C-62.96438766 107.39418406 -62.96438766 107.39418406 -56 104 C-52.11521409 99.27827638 -51.68798524 96.51111437 -52.25 90.5 C-52.49268338 83.64419442 -52.49268338 83.64419442 -50.234375 80.69140625 C-48.21001538 79.21560562 -46.28298533 78.02428583 -44 77 C-45.61823562 72.90181523 -48.57152253 70.19073925 -51.6640625 67.17578125 C-52.21613373 66.62891159 -52.76820496 66.08204193 -53.33700562 65.51860046 C-55.09497413 63.77840098 -56.85950487 62.04506037 -58.625 60.3125 C-60.39672839 58.56834995 -62.16699062 56.82277336 -63.93441772 55.07426453 C-65.03344754 53.98753691 -66.13513832 52.90349286 -67.23965454 51.82234192 C-68.51185853 50.56695491 -69.75880278 49.2860517 -71 48 C-71 47.67 -71 47.34 -71 47 C-70.40832031 46.97421875 -69.81664063 46.9484375 -69.20703125 46.921875 C-63.9640737 46.54554526 -60.76050006 45.98840916 -57 42 C-54.44582534 38.42415547 -54.42642826 34.2642826 -54 30 C-48.44891961 34.51832125 -43.44646991 39.48414175 -38.44458008 44.5925293 C-35.51629572 47.67821018 -35.51629572 47.67821018 -32 50 C-33.875 54.75 -33.875 54.75 -35 57 C-35.75253897 63.9878619 -35.67087353 69.59409754 -31.4375 75.37890625 C-28.21242998 79.01587379 -25.10129027 81.8490786 -20.171875 82.203125 C-11.58482919 82.51758588 -11.58482919 82.51758588 -4 79 C0.77209126 74.21450399 3.28801761 70.03825892 3.4375 63.25 C3.30694177 57.29509409 2.25603894 53.26591374 -2 49 C-7.17636271 45.12982227 -11.64207844 43.89010902 -18 43 C-20 41.5 -20 41.5 -21 39 C-21.03029843 35.92167996 -20.53138034 33.0243984 -20 30 C-19.95488281 29.26652344 -19.90976563 28.53304687 -19.86328125 27.77734375 C-19.59452909 25.42025512 -19.30837485 23.99219445 -18 22 C-15.29156663 20.67440903 -12.59841786 19.84884744 -9.70703125 19 C-5.15180854 17.31726261 -3.14637089 14.29274177 -1 10 C-0.77377919 8.29636178 -0.59111527 6.58671299 -0.4375 4.875 C-0.31181641 3.50988281 -0.31181641 3.50988281 -0.18359375 2.1171875 C-0.12300781 1.41851562 -0.06242187 0.71984375 0 0 Z " fill="#407BDF" transform="translate(166,70)"/>
<path d="M0 0 C5.70842718 3.09135893 10.21536985 6.63200273 12.3203125 12.92578125 C13.2730593 18.81693231 13.25085822 24.11528227 10.1953125 29.36328125 C7.02975299 33.67995331 3.47820994 37.2064821 -1.6796875 38.92578125 C-7.49081703 39.39905081 -12.82742338 39.78576102 -18.1796875 37.30078125 C-23.81330952 31.94884033 -27.92762628 27.27273268 -28.1796875 19.23828125 C-28.04409904 12.69813206 -26.27562564 8.56910019 -21.6796875 3.92578125 C-15.14961559 -1.37290567 -7.94224236 -3.18384351 0 0 Z " fill="#FCFDFE" transform="translate(157.6796875,114.07421875)"/>
<path d="M0 0 C4.13931413 1.69632138 6.39036486 4.13471142 8.9375 7.75 C10.31736393 11.97076025 10.7102021 15.60463811 10 20 C7.46759618 24.9710149 4.01138866 28.49430567 -1 31 C-5.95482094 31.54360446 -9.87125852 31.56437074 -14.375 29.3125 C-17.85104407 26.2502707 -21.57895277 22.89921093 -22.2734375 18.1171875 C-22.5205663 12.661344 -21.54561758 9.29895283 -18.58203125 4.7265625 C-13.38368574 -0.94669358 -7.23111554 -1.01522947 0 0 Z " fill="#FAFCFE" transform="translate(156,60)"/>
<path d="M0 0 C4.34373348 2.22324423 6.91301426 4.92336079 8.94140625 9.3046875 C9.79254103 15.243287 9.42249499 20.2631107 5.94140625 25.3046875 C0.98476303 29.88958248 -2.99209107 30.66800413 -9.5546875 30.58203125 C-14.55517098 30.02815555 -17.14575586 27.28959154 -20.43359375 23.7421875 C-22.7362789 18.87112275 -22.83238936 14.60281869 -22.05859375 9.3046875 C-17.76202004 0.21578157 -9.46936543 -3.19838149 0 0 Z " fill="#FCFCFE" transform="translate(207.05859375,147.6953125)"/>
<path d="M0 0 C5.36787898 1.88869816 8.45991584 4.91983169 11 10 C11.52940021 15.31135952 11.66363629 19.67272741 9.25 24.5 C5.80032043 28.3329773 3.01777112 30.63069235 -2.234375 31.2734375 C-7.72786669 31.49522443 -11.32452973 31.08739699 -15.59375 27.47265625 C-19.21643575 23.67889923 -20.19205587 20.11597608 -20.4375 15 C-20.27412738 10.26929705 -19.24047455 7.58157713 -16 4 C-11.0110418 -0.51381932 -6.43453578 -0.8593354 0 0 Z " fill="#FCFDFE" transform="translate(104,147)"/>
<path d="M0 0 C4.10746873 1.77367968 6.69875485 4.16459142 9 8 C9.62092783 12.88980666 9.55424547 14.95089249 7.25 19.3125 C3.83678809 23.38939201 2.55050463 24.82494303 -2.875 25.4375 C-7.1837043 25.26097953 -9.70779621 23.83282651 -13 21 C-15.8218117 17.61382596 -16.63925105 14.50428257 -16.49609375 10.06640625 C-15.57136894 6.21459974 -12.89231952 3.58510424 -10 1 C-6.80436932 -0.59781534 -3.4765367 -0.36841911 0 0 Z " fill="#F9FBFE" transform="translate(103,92)"/>
<path d="M0 0 C4.10746873 1.77367968 6.69875485 4.16459142 9 8 C9.61142615 12.8149809 9.51030438 14.95976415 7.375 19.3125 C3.99659554 23.13543137 1.0387776 24.70267827 -4 25.4375 C-8.64418473 24.76022306 -11.45673981 22.38893417 -14.875 19.3125 C-16.70065186 15.55977117 -16.86870112 12.06989893 -16 8 C-11.94758923 1.32033822 -7.82626745 -0.82937324 0 0 Z " fill="#FAFBFE" transform="translate(204,92)"/>
<path d="M0 0 C3.933053 1.60645827 6.60558942 3.40838413 9 7 C9.73545723 11.96861222 9.50048991 15.96194685 7.3125 20.5 C3.8845152 24.20592951 1.51430531 24.83480306 -3.4375 25.375 C-7.71478563 24.92475941 -9.72307541 23.74347175 -13 21 C-15.7322275 16.6115935 -15.81307882 12.01669633 -15 7 C-10.74565691 1.48085221 -6.96365518 -0.69636552 0 0 Z " fill="#FAFCFE" transform="translate(153,179)"/>
<path d="M0 0 C0.66 0 1.32 0 2 0 C0.66483368 4.67308211 -0.69461859 8.3922591 -4 12 C-7.55527979 12.8542838 -11.03381735 12.69776975 -14.671875 12.5859375 C-16.22820648 12.57320297 -16.22820648 12.57320297 -17.815979 12.56021118 C-21.12837771 12.52663641 -24.43833778 12.45134541 -27.75 12.375 C-29.99605858 12.34490586 -32.24215534 12.3175291 -34.48828125 12.29296875 C-39.99301888 12.22683222 -45.49633525 12.12644303 -51 12 C-51.33 11.34 -51.66 10.68 -52 10 C-50.26713745 10.00785522 -50.26713745 10.00785522 -48.49926758 10.01586914 C-44.20353982 10.0340015 -39.90781542 10.04546212 -35.61206055 10.05493164 C-33.75463288 10.05995303 -31.89720915 10.06677141 -30.03979492 10.07543945 C-27.36636379 10.08760117 -24.69298504 10.09325033 -22.01953125 10.09765625 C-21.19226028 10.10281754 -20.36498932 10.10797882 -19.51264954 10.11329651 C-13.68657101 10.14328894 -13.68657101 10.14328894 -8 9 C-7.67 8.34 -7.34 7.68 -7 7 C-6.195625 6.54625 -5.39125 6.0925 -4.5625 5.625 C-1.87592252 3.92131672 -1.10510897 2.91346909 0 0 Z " fill="#264882" transform="translate(233,256)"/>
<path d="M0 0 C1.32 0.33 2.64 0.66 4 1 C3.34 1.66 2.68 2.32 2 3 C1.67 3.825 1.34 4.65 1 5.5 C0 8 0 8 -2 10 C-2.28875 10.721875 -2.5775 11.44375 -2.875 12.1875 C-4.27401942 15.68504854 -6.09038021 18.75364635 -8 22 C-8.66 21.67 -9.32 21.34 -10 21 C-9.67 19.02 -9.34 17.04 -9 15 C-8.01 14.67 -7.02 14.34 -6 14 C-5.67 12.02 -5.34 10.04 -5 8 C-4.01 7.67 -3.02 7.34 -2 7 C-1.855625 6.21625 -1.71125 5.4325 -1.5625 4.625 C-1 2 -1 2 0 0 Z " fill="#2A5091" transform="translate(244,234)"/>
<path d="M0 0 C0.66 0 1.32 0 2 0 C0.67247285 4.64634503 -0.59364393 8.51056207 -4 12 C-7.71611668 12.51478673 -11.2730786 12.34698923 -15 12 C-14.67 11.34 -14.34 10.68 -14 10 C-12 9.66666667 -10 9.33333333 -8 9 C-7.67 8.34 -7.34 7.68 -7 7 C-6.195625 6.54625 -5.39125 6.0925 -4.5625 5.625 C-1.87592252 3.92131672 -1.10510897 2.91346909 0 0 Z " fill="#040A13" transform="translate(233,256)"/>
<path d="M0 0 C1.32 0.33 2.64 0.66 4 1 C3.34 1.66 2.68 2.32 2 3 C1.67 3.825 1.34 4.65 1 5.5 C0 8 0 8 -2 10 C-2.33 10.66 -2.66 11.32 -3 12 C-3.66 10.68 -4.32 9.36 -5 8 C-4.01 7.67 -3.02 7.34 -2 7 C-1.855625 6.21625 -1.71125 5.4325 -1.5625 4.625 C-1 2 -1 2 0 0 Z " fill="#305AA4" transform="translate(244,234)"/>
<path d="M0 0 C0.66 0 1.32 0 2 0 C0.74194623 4.50802601 -0.90407165 7.4912812 -4 11 C-4 9.68 -4 8.36 -4 7 C-3.34 7 -2.68 7 -2 7 C-1.855625 6.21625 -1.71125 5.4325 -1.5625 4.625 C-1 2 -1 2 0 0 Z " fill="#376AC0" transform="translate(270,189)"/>
<path d="" fill="#000000" transform="translate(0,0)"/>
<path d="" fill="#223B70" transform="translate(0,0)"/>
<path d="" fill="#223B70" transform="translate(0,0)"/>
<path d="" fill="#223B70" transform="translate(0,0)"/>
</svg>
